<svg width="32" height="32" viewBox="0 0 32 32" fill="none" xmlns="http://www.w3.org/2000/svg">
<path d="M31.7272 19.7723L24.454 2.21086C23.8978 0.867742 22.5956 0 21.1363 0C20.6666 0 20.2079 0.0913156 19.7726 0.271749L2.21241 7.54599C1.33082 7.91101 0.643315 8.60027 0.276126 9.48632C-0.0910629 10.3726 -0.0920395 11.3463 0.273197 12.2277L7.54642 29.7891C8.10282 31.132 9.40483 31.9998 10.8638 32H10.8641C11.3338 32 11.7928 31.9084 12.2278 31.7283L29.7882 24.4543C31.6134 23.6979 32.4833 21.5976 31.7272 19.7723ZM29.0707 22.722L11.5103 29.9959C11.3035 30.0816 11.0862 30.1249 10.8641 30.1249C10.1661 30.1249 9.54375 29.7115 9.27861 29.0716L2.00514 11.5099C1.8318 11.0912 1.83277 10.6275 2.00807 10.2039C2.18361 9.78053 2.511 9.45165 2.9297 9.2783L20.4898 2.00406C20.6964 1.91836 20.9139 1.8749 21.1363 1.8749C21.8343 1.8749 22.4566 2.2885 22.7218 2.92845L29.9953 20.4898C30.3556 21.36 29.9408 22.3613 29.0707 22.722Z" fill="#929292"/>
<path d="M15.9996 12.9453C15.5977 12.9453 15.2049 13.0237 14.8316 13.1783C13.2757 13.8231 12.5342 15.613 13.1785 17.1686C13.6529 18.3144 14.7608 19.0547 16.001 19.0547C16.4027 19.0547 16.7955 18.9763 17.169 18.8218C18.7245 18.1772 19.4659 16.387 18.8216 14.8312C18.3473 13.6856 17.2396 12.9453 15.9996 12.9453ZM16.4515 17.0895C16.307 17.1495 16.1553 17.1798 16.001 17.1798C15.522 17.1798 15.0941 16.8939 14.911 16.4512C14.6622 15.8506 14.9486 15.1596 15.5491 14.9108C15.6937 14.8508 15.8453 14.8205 15.9996 14.8205C16.4783 14.8205 16.9063 15.1064 17.0894 15.5488C17.3385 16.1494 17.0521 16.8407 16.4515 17.0895Z" fill="#929292"/>
<path d="M22.2579 8.87226C22.5699 8.11854 22.5699 7.2884 22.2579 6.53493C21.7836 5.38933 20.6756 4.6488 19.4356 4.6488C19.034 4.6488 18.6412 4.72717 18.2677 4.88197C16.712 5.52655 15.9705 7.31672 16.6151 8.87251C17.0897 10.0181 18.1973 10.7584 19.4373 10.7584C19.839 10.7584 20.232 10.6798 20.6051 10.5252C21.3587 10.2129 21.9457 9.62598 22.2579 8.87226ZM20.5257 8.15492C20.4051 8.44572 20.1786 8.6723 19.8875 8.79291C19.743 8.85273 19.5914 8.88325 19.4373 8.88325C18.9583 8.88325 18.5304 8.59734 18.347 8.15468C18.0982 7.55429 18.3846 6.86308 18.9852 6.61403C19.1297 6.55422 19.2813 6.52394 19.4356 6.52394C19.9146 6.52394 20.3424 6.80985 20.5257 7.25251C20.6461 7.5433 20.6461 7.86388 20.5257 8.15492Z" fill="#929292"/>
<path d="M10.5257 11.3947C10.0511 10.2491 8.9434 9.50879 7.7034 9.50879C7.30179 9.50879 6.90897 9.58716 6.53567 9.74196C4.97976 10.3865 4.23854 12.1765 4.88283 13.7323C5.3572 14.8779 6.46487 15.6184 7.70511 15.6184C8.10673 15.6184 8.49955 15.5398 8.87284 15.3852C10.4288 14.7406 11.1702 12.9507 10.5257 11.3947ZM8.15555 13.6529C8.01078 13.7127 7.85917 13.7432 7.70511 13.7432C7.22611 13.7432 6.79837 13.4573 6.61502 13.0147C6.36624 12.414 6.65262 11.7231 7.25296 11.4743C7.39774 11.4145 7.54911 11.3839 7.7034 11.3839C8.18241 11.3839 8.61039 11.6698 8.79374 12.1123C9.04252 12.7129 8.75614 13.4041 8.15555 13.6529Z" fill="#929292"/>
<path d="M24.2953 16.3819C23.8937 16.3819 23.5008 16.4602 23.1276 16.615C22.3739 16.9271 21.7867 17.514 21.4747 18.2678C21.1625 19.0215 21.1622 19.8516 21.4745 20.6053C21.9488 21.7509 23.0567 22.4912 24.2967 22.4912C24.6984 22.4912 25.0912 22.4128 25.4647 22.2583C26.2184 21.946 26.8053 21.3591 27.1176 20.6053C27.4296 19.8516 27.4296 19.0215 27.1173 18.2678C26.6429 17.1222 25.535 16.3819 24.2953 16.3819ZM25.3854 19.8877C25.2648 20.1788 25.0382 20.4054 24.7472 20.526C24.6024 20.5858 24.4508 20.6163 24.2967 20.6163C23.8177 20.6163 23.39 20.3304 23.2067 19.8877C23.0863 19.597 23.0863 19.2764 23.2067 18.9853C23.3273 18.6943 23.5538 18.4677 23.8448 18.3471C23.9894 18.2873 24.141 18.257 24.2953 18.257C24.774 18.257 25.202 18.5429 25.3854 18.9853C25.5057 19.2764 25.5057 19.5967 25.3854 19.8877Z" fill="#929292"/>
<path d="M12.5633 21.2419C12.1617 21.2419 11.7686 21.3202 11.3953 21.4748C9.83965 22.1194 9.09819 23.9093 9.74248 25.4653C10.2171 26.6109 11.325 27.3512 12.5648 27.3512C12.9664 27.3512 13.3592 27.2728 13.7327 27.118C15.2884 26.4737 16.0299 24.6835 15.3856 23.1277C14.9107 21.9822 13.803 21.2419 12.5633 21.2419ZM13.0152 25.386C12.8704 25.4458 12.7191 25.4761 12.5648 25.4761C12.0857 25.4761 11.658 25.1902 11.4747 24.748C11.2259 24.1471 11.5123 23.4559 12.1128 23.2071C12.2574 23.1473 12.409 23.117 12.5633 23.117C13.0421 23.117 13.47 23.4029 13.6531 23.8453C13.9019 24.446 13.6158 25.1372 13.0152 25.386Z" fill="#929292"/>
</svg>
