<svg width="35" height="33" viewBox="0 0 35 33" fill="none" xmlns="http://www.w3.org/2000/svg">
<path d="M17.5 32.0039C17.0017 32.0039 16.5213 31.8184 16.147 31.4814C14.733 30.2109 13.3699 29.0169 12.1672 27.9637L12.161 27.9582C8.63491 24.8702 5.58998 22.2035 3.47137 19.5765C1.1031 16.6397 0 13.8552 0 10.8134C0 7.85792 0.986137 5.13134 2.77657 3.13552C4.58836 1.11611 7.07439 0.00390625 9.77753 0.00390625C11.7979 0.00390625 13.6481 0.660305 15.2767 1.95472C16.0986 2.6081 16.8436 3.40774 17.5 4.34048C18.1566 3.40774 18.9014 2.6081 19.7235 1.95472C21.3522 0.660305 23.2024 0.00390625 25.2227 0.00390625C27.9256 0.00390625 30.4119 1.11611 32.2237 3.13552C34.0141 5.13134 35 7.85792 35 10.8134C35 13.8552 33.8972 16.6397 31.5289 19.5762C29.4103 22.2035 26.3656 24.87 22.84 27.9577C21.6352 29.0125 20.2699 30.2084 18.8528 31.482C18.4787 31.8184 17.998 32.0039 17.5 32.0039ZM9.77753 2.11086C7.65385 2.11086 5.70293 2.98185 4.28368 4.56357C2.84332 6.16917 2.04998 8.38863 2.04998 10.8134C2.04998 13.3717 2.97523 15.6598 5.04978 18.2321C7.0549 20.7186 10.0373 23.3305 13.4906 26.3548L13.497 26.3603C14.7042 27.4176 16.0727 28.6163 17.4971 29.8961C18.9299 28.6138 20.3006 27.4132 21.5102 26.3543C24.9632 23.3299 27.9454 20.7186 29.9505 18.2321C32.0248 15.6598 32.95 13.3717 32.95 10.8134C32.95 8.38863 32.1567 6.16917 30.7163 4.56357C29.2973 2.98185 27.3462 2.11086 25.2227 2.11086C23.667 2.11086 22.2387 2.61907 20.9775 3.62124C19.8536 4.51473 19.0707 5.64422 18.6116 6.43453C18.3756 6.84094 17.9601 7.08352 17.5 7.08352C17.0399 7.08352 16.6244 6.84094 16.3884 6.43453C15.9296 5.64422 15.1467 4.51473 14.0225 3.62124C12.7613 2.61907 11.333 2.11086 9.77753 2.11086Z" fill="#929292"/>
</svg>
