<svg width="37" height="36" viewBox="0 0 37 36" fill="none" xmlns="http://www.w3.org/2000/svg">
<path opacity="0.5" d="M36.833 13.5021C36.3885 12.1205 35.1751 11.2278 33.7418 11.2278H24.499L21.5884 2.26569C21.141 0.888005 19.9302 0 18.501 0C18.4965 0 18.4918 -4.02506e-08 18.4872 7.32215e-05C17.0522 0.00578764 15.8419 0.904782 15.4038 2.29038L12.578 11.2278H3.25823C1.82135 11.2278 0.607018 12.1235 0.164669 13.5096C-0.277754 14.8957 0.188874 16.3429 1.35349 17.1964L8.89418 22.7229L5.99166 31.6601C5.54245 33.0433 6.00127 34.4926 7.16054 35.3522C7.74278 35.784 8.41107 36 9.0798 36C9.74246 35.9999 10.4055 35.7878 10.9848 35.3631L18.5386 29.8273L26.0026 35.3538C27.1606 36.2113 28.6602 36.2154 29.823 35.3646C30.9857 34.5138 31.4542 33.0695 31.0165 31.6849L28.1828 22.7229L35.6594 17.187C36.8169 16.33 37.2776 14.8836 36.833 13.5021ZM34.381 15.412L25.641 21.8833L28.9522 32.3558C29.1751 33.0607 28.704 33.4728 28.5543 33.5824C28.4047 33.6919 27.8704 34.0153 27.2808 33.5787L18.545 27.1105L9.71493 33.5819C9.12236 34.0161 8.58947 33.689 8.44019 33.5783C8.29099 33.4676 7.82183 33.0517 8.05059 32.3475L11.449 21.8833L2.62332 15.4152C2.03038 14.9806 2.17013 14.3646 2.22706 14.1863C2.284 14.0079 2.52664 13.4256 3.25823 13.4256H14.1595L17.468 2.96131C17.6911 2.25587 18.3111 2.19866 18.4959 2.19785H18.4996C18.6889 2.19785 19.3026 2.25419 19.5296 2.95311L22.9307 13.4256H33.7419C34.4717 13.4256 34.7151 14.0059 34.7724 14.1838C34.8296 14.3616 34.9703 14.9757 34.381 15.412Z" fill="#252525"/>
</svg>
