<svg width="38" height="36" viewBox="0 0 38 36" fill="none" xmlns="http://www.w3.org/2000/svg">
<g opacity="0.5">
<path d="M31.6172 36H6.3828C4.50031 36 2.96873 34.4523 2.96873 32.5498V14.397C2.96873 13.7342 3.50036 13.1969 4.15624 13.1969C4.81211 13.1969 5.34374 13.7342 5.34374 14.397V32.5498C5.34374 33.1288 5.80983 33.5998 6.3828 33.5998H31.6172C32.1902 33.5998 32.6563 33.1288 32.6563 32.5498V14.397C32.6563 13.7342 33.1879 13.1969 33.8438 13.1969C34.4996 13.1969 35.0313 13.7342 35.0313 14.397V32.5498C35.0313 34.4522 33.4998 36 31.6172 36Z" fill="#252525"/>
<path d="M36.8125 18.5969C36.5086 18.5969 36.2047 18.4797 35.9729 18.2453L21.2042 3.32026C19.9888 2.09197 18.0113 2.09197 16.7959 3.32026L2.02719 18.2454C1.56348 18.7141 0.811564 18.7141 0.347845 18.2454C-0.115948 17.7768 -0.115948 17.0169 0.347845 16.5483L15.1165 1.62304C17.2579 -0.541013 20.7422 -0.541013 22.8835 1.62304L37.6522 16.5482C38.116 17.0169 38.116 17.7767 37.6522 18.2453C37.4204 18.4797 37.1164 18.5969 36.8125 18.5969Z" fill="#252525"/>
<path d="M23.75 36H14.25C13.5941 36 13.0625 35.4627 13.0625 34.7999V24.1492C13.0625 22.0813 14.7272 20.3989 16.7734 20.3989H21.2266C23.2728 20.3989 24.9375 22.0813 24.9375 24.1492V34.7999C24.9375 35.4627 24.4059 36 23.75 36ZM15.4375 33.5998H22.5625V24.1492C22.5625 23.4047 21.9632 22.7991 21.2266 22.7991H16.7734C16.0368 22.7991 15.4375 23.4047 15.4375 24.1492V33.5998Z" fill="#252525"/>
</g>
</svg>
