<svg width="36" height="36" viewBox="0 0 36 36" fill="none" xmlns="http://www.w3.org/2000/svg">
<g opacity="0.5">
<path d="M18 36C13.192 36 8.67178 34.1277 5.27203 30.728C1.87228 27.3282 0 22.808 0 18C0 13.192 1.87235 8.67185 5.27203 5.27203C8.67171 1.87221 13.192 0 18 0C22.808 0 27.3282 1.87228 30.728 5.27203C34.1277 8.67178 36 13.192 36 18C36 22.808 34.1276 27.3281 30.728 30.728C27.3283 34.1278 22.808 36 18 36ZM18 2.25C9.31542 2.25 2.25 9.31542 2.25 18C2.25 26.6846 9.31542 33.75 18 33.75C26.6846 33.75 33.75 26.6846 33.75 18C33.75 9.31542 26.6846 2.25 18 2.25Z" fill="#252525"/>
<path d="M18 16.875C16.4492 16.875 15.1875 15.6133 15.1875 14.0625C15.1875 12.5117 16.4492 11.25 18 11.25C19.5508 11.25 20.8125 12.5117 20.8125 14.0625C20.8125 14.6838 21.3161 15.1875 21.9375 15.1875C22.5589 15.1875 23.0625 14.6838 23.0625 14.0625C23.0625 11.6577 21.3765 9.64069 19.125 9.12755V7.875C19.125 7.25372 18.6214 6.75 18 6.75C17.3786 6.75 16.875 7.25372 16.875 7.875V9.12755C14.6235 9.64069 12.9375 11.6577 12.9375 14.0625C12.9375 16.854 15.2085 19.125 18 19.125C19.5508 19.125 20.8125 20.3867 20.8125 21.9375C20.8125 23.4883 19.5508 24.75 18 24.75C16.4492 24.75 15.1875 23.4883 15.1875 21.9375C15.1875 21.3162 14.6839 20.8125 14.0625 20.8125C13.4411 20.8125 12.9375 21.3162 12.9375 21.9375C12.9375 24.3423 14.6235 26.3593 16.875 26.8725V28.125C16.875 28.7463 17.3786 29.25 18 29.25C18.6214 29.25 19.125 28.7463 19.125 28.125V26.8725C21.3765 26.3593 23.0625 24.3423 23.0625 21.9375C23.0625 19.146 20.7915 16.875 18 16.875Z" fill="#252525"/>
</g>
</svg>
