<svg width="32" height="33" viewBox="0 0 32 33" fill="none" xmlns="http://www.w3.org/2000/svg">
<path d="M16 0.00366211C7.17775 0.00366211 0 7.18141 0 16.0037C0 24.8259 7.17775 32.0037 16 32.0037C24.8223 32.0037 32 24.8259 32 16.0037C32 7.18141 24.8223 0.00366211 16 0.00366211ZM16 30.0037C8.2803 30.0037 2.00002 23.7234 2.00002 16.0037C2.00002 8.28402 8.2803 2.00368 16 2.00368C23.7197 2.00368 30 8.28396 30 16.0037C30 23.7234 23.7197 30.0037 16 30.0037Z" fill="#929292"/>
<path d="M15 24.0037H17V26.0037H15V24.0037Z" fill="#929292"/>
<path d="M16 6.00366C12.6914 6.00366 9.99999 8.69503 9.99999 12.0037V14.0037H12V12.0037C12 9.79758 13.794 8.00368 16 8.00368C18.2061 8.00368 20 9.79764 20 12.0037C20 13.5046 19.2002 14.9177 17.913 15.6902L15.4853 17.1462C15.1845 17.3269 14.9999 17.6521 14.9999 18.0036V22.0036H17V18.57L18.9423 17.405C20.8281 16.2722 21.9999 14.2028 21.9999 12.0036C22 8.69503 19.3086 6.00366 16 6.00366Z" fill="#929292"/>
</svg>
