<svg width="36px" height="36px" viewBox="0 0 36 36" xmlns="http://www.w3.org/2000/svg">
<path d="M 35.535156 28.574219 L 20.769531 4.085938 C 20.1875 3.121094 19.125 2.519531 18 2.519531 C 16.875 2.519531 15.8125 3.121094 15.230469 4.085938 L 0.464844 28.574219 C -0.136719 29.570312 -0.15625 30.820312 0.417969 31.835938 C 0.988281 32.847656 2.070312 33.480469 3.234375 33.480469 L 32.765625 33.480469 C 33.929688 33.480469 35.011719 32.847656 35.582031 31.835938 C 36.15625 30.820312 36.136719 29.570312 35.535156 28.574219 Z M 33.542969 30.683594 C 33.382812 30.960938 33.085938 31.136719 32.765625 31.136719 L 3.234375 31.136719 C 2.914062 31.136719 2.617188 30.960938 2.457031 30.683594 C 2.300781 30.402344 2.304688 30.058594 2.472656 29.785156 L 17.238281 5.296875 C 17.398438 5.03125 17.691406 4.863281 18 4.863281 C 18.308594 4.863281 18.601562 5.03125 18.761719 5.296875 L 33.527344 29.785156 C 33.695312 30.058594 33.699219 30.402344 33.542969 30.683594 Z M 33.542969 30.683594 " fill="#929292"/>
<path d="M 18.011719 12.164062 C 17.121094 12.164062 16.421875 12.644531 16.421875 13.492188 C 16.421875 16.078125 16.726562 19.796875 16.726562 22.382812 C 16.726562 23.058594 17.316406 23.339844 18.011719 23.339844 C 18.53125 23.339844 19.273438 23.058594 19.273438 22.382812 C 19.273438 19.796875 19.578125 16.078125 19.578125 13.492188 C 19.578125 12.644531 18.859375 12.164062 18.011719 12.164062 Z M 18.011719 12.164062 " fill="#929292"/>
<path d="M 18.03125 24.84375 C 17.074219 24.84375 16.359375 25.601562 16.359375 26.515625 C 16.359375 27.40625 17.074219 28.191406 18.03125 28.191406 C 18.925781 28.191406 19.683594 27.40625 19.683594 26.515625 C 19.683594 25.601562 18.925781 24.84375 18.03125 24.84375 Z M 18.03125 24.84375 " fill="#929292"/>
</svg>
