<svg width="36" height="36" viewBox="0 0 36 36" fill="none" xmlns="http://www.w3.org/2000/svg">
<path d="M1.125 12.0001C0.503998 12.0001 0 11.4961 0 10.8751V4.12509C0 1.84955 1.84955 0 4.12509 0H10.8751C11.4961 0 12.0001 0.503998 12.0001 1.125C12.0001 1.746 11.4961 2.25 10.8751 2.25H4.12509C3.09155 2.25 2.25 3.09155 2.25 4.12509V10.8751C2.25 11.4961 1.746 12.0001 1.125 12.0001Z" fill="#929292"/>
<path d="M31.8749 36H25.1249C24.5039 36 23.9999 35.496 23.9999 34.875C23.9999 34.254 24.5039 33.75 25.1249 33.75H31.8749C32.9084 33.75 33.75 32.9084 33.75 31.8749V25.1249C33.75 24.5039 34.254 23.9999 34.875 23.9999C35.496 23.9999 36 24.5039 36 25.1249V31.8749C36 34.1505 34.1505 36 31.8749 36Z" fill="#929292"/>
<path d="M10.8751 36H4.12509C1.84955 36 0 34.1505 0 31.8749V25.1249C0 24.5039 0.503998 23.9999 1.125 23.9999C1.746 23.9999 2.25 24.5039 2.25 25.1249V31.8749C2.25 32.9084 3.09155 33.75 4.12509 33.75H10.8751C11.4961 33.75 12.0001 34.254 12.0001 34.875C12.0001 35.496 11.4961 36 10.8751 36Z" fill="#929292"/>
<path d="M34.875 12.0001C34.254 12.0001 33.75 11.4961 33.75 10.8751V4.12509C33.75 3.09155 32.9084 2.25 31.8749 2.25H25.1249C24.5039 2.25 23.9999 1.746 23.9999 1.125C23.9999 0.503998 24.5039 0 25.1249 0H31.8749C34.1505 0 36 1.84955 36 4.12509V10.8751C36 11.4961 35.496 12.0001 34.875 12.0001Z" fill="#929292"/>
<path d="M25.875 30.0001H10.125C7.84946 30.0001 5.99991 28.1505 5.99991 25.875V10.125C5.99991 7.84946 7.84946 5.99991 10.125 5.99991H25.875C28.1505 5.99991 30.0001 7.84946 30.0001 10.125V25.875C30.0001 28.1505 28.1505 30.0001 25.875 30.0001ZM10.125 8.24991C9.09146 8.24991 8.24991 9.09146 8.24991 10.125V25.875C8.24991 26.9085 9.09146 27.7501 10.125 27.7501H25.875C26.9085 27.7501 27.7501 26.9085 27.7501 25.875V10.125C27.7501 9.09146 26.9085 8.24991 25.875 8.24991H10.125Z" fill="#929292"/>
</svg>
