<svg width="38" height="36" viewBox="0 0 38 36" fill="none" xmlns="http://www.w3.org/2000/svg">
<path d="M35.625 9.56542H28.1105C28.6496 9.19293 29.1128 8.82284 29.4358 8.49121C31.35 6.54226 31.35 3.37011 29.4358 1.42116C27.5761 -0.472518 24.3319 -0.474921 22.4699 1.42116C21.4415 2.46653 18.7079 6.7225 19.0855 9.56542H18.9145C19.2898 6.7225 16.5585 2.46653 15.5301 1.42116C13.6681 -0.474921 10.4239 -0.472518 8.56425 1.42116C6.65 3.37011 6.65 6.54226 8.56188 8.49121C8.88725 8.82284 9.35038 9.19293 9.8895 9.56542H2.375C1.06638 9.56542 0 10.6444 0 11.9686V17.9764C0 18.6397 0.532 19.178 1.1875 19.178H2.375V33.5969C2.375 34.921 3.44138 36 4.75 36H33.25C34.5586 36 35.625 34.921 35.625 33.5969V19.178H36.8125C37.468 19.178 38 18.6397 38 17.9764V11.9686C38 10.6444 36.9336 9.56542 35.625 9.56542ZM10.2481 3.11538C10.7303 2.62513 11.3691 2.35598 12.0484 2.35598C12.7253 2.35598 13.3641 2.62513 13.8462 3.11538C15.447 4.74471 17.0382 8.90695 16.4849 9.48611C16.4849 9.48611 16.3851 9.56542 16.0455 9.56542C14.4044 9.56542 11.2718 7.83996 10.2481 6.79699C9.253 5.78287 9.253 4.1295 10.2481 3.11538ZM17.8125 33.5969H4.75V19.178H17.8125V33.5969ZM17.8125 16.7748H2.375V11.9686H16.0455H17.8125V16.7748ZM24.1537 3.11538C25.118 2.1373 26.79 2.1397 27.7519 3.11538C28.747 4.1295 28.747 5.78287 27.7519 6.79699C26.7283 7.83996 23.5956 9.56542 21.9545 9.56542C21.6149 9.56542 21.5151 9.48851 21.5127 9.48611C20.9618 8.90695 22.553 4.74471 24.1537 3.11538ZM33.25 33.5969H20.1875V19.178H33.25V33.5969ZM35.625 16.7748H20.1875V11.9686H21.9545H35.625V16.7748Z" fill="#929292"/>
</svg>
