<svg width="35" height="30" viewBox="0 0 35 30" fill="none" xmlns="http://www.w3.org/2000/svg">
<rect opacity="0.15" x="0.5" y="0.5" width="29" height="29" rx="4.5" stroke="#ffffff"/>
<line x1="29.5" y1="6" x2="29.5" y2="24" stroke="#121a4a"/>
<path d="M11.97 20H10.766V13.014C10.766 12.6127 10.7707 12.2907 10.78 12.048C10.7893 11.8053 10.8033 11.5533 10.822 11.292C10.6727 11.4413 10.5373 11.5673 10.416 11.67C10.2947 11.7727 10.1407 11.9033 9.954 12.062L8.89 12.93L8.246 12.104L10.948 10.004H11.97V20ZM19.0017 9.864C19.8791 9.864 20.5977 10.0693 21.1577 10.48C21.7177 10.8907 21.9977 11.4833 21.9977 12.258C21.9977 12.6593 21.9091 13.0093 21.7317 13.308C21.5637 13.6067 21.3351 13.8727 21.0457 14.106C20.7564 14.33 20.4391 14.5307 20.0937 14.708C20.5044 14.904 20.8777 15.128 21.2137 15.38C21.5497 15.6227 21.8157 15.9073 22.0117 16.234C22.2171 16.5607 22.3197 16.9527 22.3197 17.41C22.3197 18.25 22.0211 18.9173 21.4237 19.412C20.8357 19.8973 20.0424 20.14 19.0437 20.14C17.9704 20.14 17.1444 19.9067 16.5657 19.44C15.9871 18.964 15.6977 18.3013 15.6977 17.452C15.6977 16.9947 15.7911 16.598 15.9777 16.262C16.1737 15.926 16.4304 15.6367 16.7477 15.394C17.0651 15.1513 17.4057 14.946 17.7697 14.778C17.2844 14.498 16.8691 14.162 16.5237 13.77C16.1877 13.3687 16.0197 12.86 16.0197 12.244C16.0197 11.7307 16.1504 11.3013 16.4117 10.956C16.6731 10.6013 17.0277 10.3307 17.4757 10.144C17.9237 9.95733 18.4324 9.864 19.0017 9.864ZM18.9877 10.858C18.4744 10.858 18.0497 10.984 17.7137 11.236C17.3871 11.4787 17.2237 11.8333 17.2237 12.3C17.2237 12.6453 17.3031 12.9347 17.4617 13.168C17.6297 13.4013 17.8537 13.602 18.1337 13.77C18.4137 13.9287 18.7217 14.0827 19.0577 14.232C19.5431 14.0267 19.9491 13.7793 20.2757 13.49C20.6117 13.2007 20.7797 12.804 20.7797 12.3C20.7797 11.8333 20.6164 11.4787 20.2897 11.236C19.9631 10.984 19.5291 10.858 18.9877 10.858ZM16.9017 17.466C16.9017 17.9513 17.0744 18.3573 17.4197 18.684C17.7651 19.0013 18.2971 19.16 19.0157 19.16C19.6971 19.16 20.2151 19.0013 20.5697 18.684C20.9337 18.3573 21.1157 17.9373 21.1157 17.424C21.1157 16.9387 20.9244 16.5373 20.5417 16.22C20.1591 15.8933 19.6504 15.6087 19.0157 15.366L18.7917 15.282C18.1757 15.5433 17.7044 15.8467 17.3777 16.192C17.0604 16.528 16.9017 16.9527 16.9017 17.466Z" fill="#969CC6"/>
<path d="M28.2159 19.1051H29.6477V15.6023H33.1506V14.1705H29.6477V10.6676H28.2159V14.1705H24.7131V15.6023H28.2159V19.1051Z" fill="#969CC6"/>
</svg>
