<svg width="56" height="66" viewBox="0 0 56 66" fill="none" xmlns="http://www.w3.org/2000/svg">
<path d="M14.4133 28.5337L0 55.6889L13.0886 54.4797L19.4234 65.998L33.8367 38.8428L14.4133 28.5337Z" fill="#E95454"/>
<path d="M16.064 58.0909C16.4685 57.2222 16.0455 56.1843 15.1995 55.7345L14.3699 55.2929C13.5404 54.8203 13.2247 53.77 13.6766 52.9199C14.1347 52.0553 15.2118 51.7251 16.0764 52.1832L18.4205 53.4275C19.1448 53.8113 20.0527 53.5327 20.4262 52.8043L20.484 52.6929C20.9132 52.0058 20.6594 51.0979 19.9454 50.7202L12.9338 46.9998C12.0795 46.5458 11.6606 45.512 12.0589 44.6413C12.4984 43.7148 13.6085 43.3495 14.502 43.8241L21.0061 47.2763C21.7303 47.6601 22.6383 47.3815 23.0221 46.6573L23.0592 46.5624L23.0695 46.5417C23.4843 45.7824 23.1933 44.829 22.4278 44.4225L18.7796 42.487C17.9253 42.033 17.5064 40.9992 17.9109 40.1181C18.3462 39.202 19.4605 38.8264 20.354 39.301L24.3839 41.4408C25.1371 41.8411 26.0368 41.5069 26.4268 40.7475C26.433 40.7372 26.433 40.7372 26.4371 40.7269C26.4433 40.7165 26.4433 40.7165 26.4474 40.7062C26.858 39.9572 26.6311 39.0245 25.8758 38.6263L21.5281 36.3193C20.6842 35.8715 20.2653 34.8377 20.6635 33.9669C21.103 33.0405 22.2132 32.6752 23.1067 33.1498L33.8326 38.8429L19.4192 65.9981L15.4471 58.7781C15.7029 58.6047 15.9258 58.3901 16.064 58.0909Z" fill="#ED6362"/>
<path d="M41.3746 28.5337L55.7879 55.6889L42.6993 54.4797L36.3645 65.998L21.9512 38.8428L41.3746 28.5337Z" fill="#ED6362"/>
<path d="M39.7237 58.0906C39.3193 57.2219 39.7423 56.1839 40.5883 55.7341L41.4178 55.2925C42.2473 54.82 42.563 53.7697 42.1111 52.9195C41.653 52.0549 40.5759 51.7248 39.7113 52.1829L37.3672 53.4272C36.6429 53.811 35.735 53.5324 35.3615 52.804L35.3038 52.6926C34.8746 52.0054 35.1284 51.0975 35.8423 50.7199L42.856 46.9974C43.7103 46.5434 44.1292 45.5096 43.731 44.6388C43.2914 43.7124 42.1813 43.3471 41.2878 43.8217L34.7838 47.2739C34.0595 47.6577 33.1516 47.3791 32.7678 46.6549L32.7306 46.5599L32.7203 46.5393C32.3055 45.7799 32.5965 44.8266 33.362 44.4201L37.0102 42.4846C37.8645 42.0306 38.2834 40.9968 37.879 40.1157C37.4436 39.1995 36.3293 38.824 35.4358 39.2986L31.4017 41.4425C30.6486 41.8428 29.7489 41.5086 29.3589 40.7492C29.3527 40.7389 29.3527 40.7389 29.3486 40.7286C29.3424 40.7183 29.3424 40.7183 29.3383 40.7079C28.9276 39.9589 29.1546 39.0262 29.9099 38.628L34.2576 36.321C35.1015 35.8732 35.5204 34.8394 35.1222 33.9687C34.6827 33.0422 33.5725 32.6769 32.679 33.1515L21.9531 38.8446L36.3664 65.9999L40.3386 58.7798C40.0848 58.6044 39.862 58.3898 39.7237 58.0906Z" fill="#E95454"/>
<path d="M27.8939 48.1655C41.1944 48.1655 51.9766 37.3832 51.9766 24.0827C51.9766 10.7822 41.1944 0 27.8939 0C14.5934 0 3.81116 10.7822 3.81116 24.0827C3.81116 37.3832 14.5934 48.1655 27.8939 48.1655Z" fill="#FFCC5B"/>
<path d="M31.1604 21.3198H15.899C14.7125 21.3198 13.7385 20.3458 13.7385 19.1593L13.755 19.0107V18.9777C13.7385 17.7252 14.7599 16.7017 16.0145 16.7017H26.5919C27.993 16.7017 29.231 15.6638 29.3136 14.2606C29.3796 12.7935 28.2096 11.5554 26.7404 11.5554H15.5358C14.2998 11.5554 13.3754 10.5175 13.3919 9.27943C13.3919 9.26292 13.3919 9.26292 13.3919 9.24642C13.3919 9.22991 13.3919 9.22991 13.3919 9.2134C13.3754 7.97738 14.2977 6.9374 15.5358 6.9374H27.2604C28.645 6.9374 29.8831 5.89947 29.9656 4.51282C30.0317 3.02919 28.8617 1.80762 27.3925 1.80762H18.8064C10.0511 5.41662 3.88135 14.0254 3.88135 24.0827C3.88135 34.1401 10.0511 42.7468 18.8085 46.3517H29.7098C31.0943 46.3517 32.3324 45.3138 32.415 43.9271C32.481 42.4435 31.311 41.224 29.8418 41.224L17.4404 41.2219C15.9774 41.2219 14.7992 39.9983 14.8776 38.5167C14.9498 37.13 16.1961 36.088 17.5848 36.088H22.3927C23.7752 36.0488 24.8916 34.9159 24.8916 33.5231C24.8916 32.1055 23.7381 30.95 22.3184 30.95H15.0303C13.8438 30.95 12.8698 29.9781 12.8863 28.7895V28.6079C12.8038 27.4379 13.7447 26.4475 14.9147 26.4475H31.0118C32.4129 26.4475 33.651 25.4096 33.7335 24.0229C33.7996 22.5413 32.6275 21.3198 31.1604 21.3198Z" fill="#FDBC4B"/>
<path d="M27.8939 41.2715C18.4143 41.2715 10.7031 33.5583 10.7031 24.0808C10.7031 14.6033 18.4143 6.89209 27.8939 6.89209C37.3734 6.89209 45.0846 14.6053 45.0846 24.0828C45.0846 33.5603 37.3734 41.2715 27.8939 41.2715Z" fill="#FFDB70"/>
<path opacity="0.2" d="M45.0847 24.0826C45.0847 14.9373 37.8997 7.45727 28.8803 6.94141H27.2791C26.2226 6.94141 25.2796 7.73378 25.2156 8.79027C25.1661 9.92105 26.0575 10.8537 27.178 10.8537L36.6369 10.8558C37.7532 10.8558 38.6508 11.7885 38.591 12.9193C38.5353 13.9778 37.5861 14.7723 36.5255 14.7723H32.8587C31.8043 14.8032 30.952 15.6657 30.952 16.7284C30.952 17.8097 31.8331 18.6908 32.9144 18.6908H38.4734C39.3792 18.6908 40.12 19.4336 40.1076 20.3374V20.4736C40.1695 21.3671 39.4535 22.1203 38.56 22.1203H26.2845C25.2156 22.1203 24.2726 22.9126 24.2086 23.9691C24.1591 25.0999 25.0505 26.0326 26.171 26.0326H37.8089C38.7148 26.0326 39.4556 26.7755 39.4556 27.6793L39.4432 27.7927V27.8175C39.4556 28.7729 38.6756 29.5529 37.7202 29.5529H29.6521C28.5832 29.5529 27.6402 30.3453 27.5762 31.4141C27.5267 32.5325 28.4181 33.4776 29.5386 33.4776H38.0834C39.0264 33.4776 39.73 34.27 39.7176 35.213C39.7176 35.2254 39.7176 35.2254 39.7176 35.2377C39.7176 35.2501 39.7176 35.2501 39.7176 35.2625C39.73 36.2055 39.0264 36.9979 38.0834 36.9979H29.1424C28.0859 36.9979 27.1429 37.7902 27.0789 38.8467C27.0294 39.9796 27.9208 40.9102 29.0413 40.9102H31.3998C39.2059 39.2842 45.0847 32.3571 45.0847 24.0826Z" fill="white"/>
<path d="M40.0084 20.2756H31.6472L29.0617 12.3229C28.7294 11.3015 27.283 11.3015 26.9507 12.3229L24.3673 20.2756H16.0061C14.931 20.2756 14.4833 21.6519 15.354 22.2833L22.1181 27.1985L19.5346 35.1511C19.2024 36.1725 20.3724 37.0227 21.2432 36.3912L28.0072 31.4761L34.7713 36.3912C35.6421 37.0227 36.812 36.1725 36.4798 35.1511L33.8964 27.1985L40.6604 22.2833C41.5291 21.6519 41.0834 20.2756 40.0084 20.2756Z" fill="#EC9922"/>
</svg>
