<svg width="25" height="25" viewBox="0 0 25 25" fill="none" xmlns="http://www.w3.org/2000/svg">
<path d="M12.5 0C5.60754 0 0 5.60738 0 12.4999C0 19.3925 5.60754 25 12.5 25C19.3925 25 25 19.3925 25 12.4999C25 5.60738 19.3926 0 12.5 0ZM19.6777 10.3886L11.8246 18.2417C11.4907 18.5756 11.0468 18.7594 10.5746 18.7594C10.1025 18.7594 9.6586 18.5756 9.32469 18.2417L5.32228 14.2393C4.98837 13.9054 4.80445 13.4615 4.80445 12.9893C4.80445 12.517 4.98837 12.0732 5.32228 11.7392C5.65606 11.4053 6.09993 11.2214 6.57224 11.2214C7.04442 11.2214 7.48842 11.4053 7.8222 11.7394L10.5745 14.4915L17.1775 7.88855C17.5115 7.55464 17.9553 7.37086 18.4275 7.37086C18.8997 7.37086 19.3435 7.55464 19.6775 7.88855C20.3669 8.57803 20.3669 9.69938 19.6777 10.3886Z" fill="#FFC529"/>
</svg>
